<?xml version="1.0" encoding="UTF-8" standalone="no"?>
<!-- Created with Inkscape (http://www.inkscape.org/) -->

<svg
   width="15.999999"
   height="15.999999"
   viewBox="0 0 4.233333 4.233333"
   version="1.1"
   id="svg1"
   xml:space="preserve"
   sodipodi:docname="Azadi Road favicon.svg"
   inkscape:version="1.4.3 (0d15f75, 2025-12-25)"
   inkscape:export-filename="Azadi Road favicon.png"
   inkscape:export-xdpi="96"
   inkscape:export-ydpi="96"
   xmlns:inkscape="http://www.inkscape.org/namespaces/inkscape"
   xmlns:sodipodi="http://sodipodi.sourceforge.net/DTD/sodipodi-0.dtd"
   xmlns="http://www.w3.org/2000/svg"
   xmlns:svg="http://www.w3.org/2000/svg"
   xmlns:rdf="http://www.w3.org/1999/02/22-rdf-syntax-ns#"
   xmlns:cc="http://creativecommons.org/ns#"
   xmlns:dc="http://purl.org/dc/elements/1.1/"><defs
     id="defs1" /><sodipodi:namedview
     id="base"
     pagecolor="#ffffff"
     bordercolor="#000000"
     borderopacity="0.3"
     inkscape:pageopacity="0.0"
     inkscape:pageshadow="2"
     inkscape:zoom="15.839192"
     inkscape:cx="20.108349"
     inkscape:cy="1.420527"
     inkscape:document-units="px"
     inkscape:showpageshadow="2"
     inkscape:pagecheckerboard="0"
     inkscape:deskcolor="#d1d1d1"
     showguides="true"
     showgrid="false"
     inkscape:window-width="1920"
     inkscape:window-height="1009"
     inkscape:window-x="1912"
     inkscape:window-y="-8"
     inkscape:window-maximized="1"
     inkscape:current-layer="svg1"><inkscape:grid
       id="grid4"
       units="mm"
       originx="0"
       originy="0"
       spacingx="0.99999999"
       spacingy="0.99999999"
       empcolor="#0099e5"
       empopacity="0.30196078"
       color="#0099e5"
       opacity="0.14901961"
       empspacing="5"
       enabled="true"
       visible="false" /><sodipodi:guide
       position="132.29019,265.67001"
       orientation="1,0"
       id="guide4"
       inkscape:locked="false" /><sodipodi:guide
       position="133.10022,117.05055"
       orientation="0,-1"
       id="guide5"
       inkscape:locked="false" /><sodipodi:guide
       position="128.95755,189.61423"
       orientation="0,-1"
       id="guide6"
       inkscape:locked="false" /><sodipodi:guide
       position="106.77417,168.49994"
       orientation="1,0"
       id="guide7"
       inkscape:locked="false" /><sodipodi:guide
       position="134.08777,179.85889"
       orientation="0,-1"
       id="guide11"
       inkscape:locked="false" /><sodipodi:guide
       position="131.87825,142.74507"
       orientation="0,-1"
       id="guide12"
       inkscape:locked="false" /><sodipodi:guide
       position="134.70384,117.05055"
       orientation="0,-1"
       id="guide15"
       inkscape:locked="false" /><inkscape:page
       x="0"
       y="0"
       width="4.2333331"
       height="4.2333331"
       id="page2"
       margin="0"
       bleed="0" /></sodipodi:namedview><metadata
     id="metadata1"><rdf:RDF><cc:Work
         rdf:about=""><dc:format>image/svg+xml</dc:format><dc:type
           rdf:resource="http://purl.org/dc/dcmitype/StillImage" /></cc:Work></rdf:RDF></metadata><rect
     style="display:inline;fill:#262b31;fill-opacity:1;stroke:none;stroke-width:0.0212601;stroke-dasharray:none;stroke-opacity:1"
     id="rect18"
     width="4.2333336"
     height="4.2333331"
     x="4.4408921e-16"
     y="6.1062266e-16"
     inkscape:label="BG" /><g
     id="g18"
     inkscape:label="Logo"
     inkscape:export-filename="Azadi Road logo011.svg"
     inkscape:export-xdpi="96"
     inkscape:export-ydpi="96"
     transform="matrix(0.04849165,0,0,0.04849165,-4.3059167,-3.2765911)"><path
       id="path7"
       style="baseline-shift:baseline;display:inline;overflow:visible;opacity:1;vector-effect:none;fill:#ffffff;enable-background:accumulate;stop-color:#000000;stop-opacity:1"
       d="m 106.88081,83.197505 0.92604,2.082043 c 0,0 2.35905,5.415223 2.44688,10.597286 0.045,2.654711 -0.28175,6.968406 -0.31419,11.349696 -0.0324,4.3813 0.18159,8.83738 1.57975,12.1698 2.58013,6.14957 8.2904,9.49101 9.6175,10.23452 -0.32712,0.45222 -0.4205,0.7556 -0.7891,1.23455 -8.38169,10.89089 -24.839826,16.62069 -24.839826,16.62069 l 0.01602,0.0465 h 7.053836 c 5.78255,-2.73801 14.34938,-7.68974 19.96157,-14.98203 8.58891,-11.16013 6.512,-16.34306 8.15196,-22.32215 1.40376,-5.11798 2.80499,-7.59178 2.80499,-7.59178 l 0.33177,-0.58963 -0.26149,-0.62115 c 0,0 -3.03728,-7.31835 -10.09602,-12.488127 -7.04187,-5.15743 -14.31644,-5.599658 -14.31644,-5.599658 z m 4.31085,3.327962 c 2.21596,0.369506 6.01169,1.249706 10.64431,4.64261 5.96897,4.371638 8.58035,10.108093 8.90799,10.845853 -0.41572,0.81403 -1.50734,3.0582 -2.72077,7.48223 -1.64165,5.98528 -0.42283,9.91196 -5.3945,17.8046 -1.09454,-0.6499 -6.44112,-3.92188 -8.5602,-8.97258 -1.07681,-2.56652 -1.39473,-6.82787 -1.36323,-11.08201 0.0315,-4.25414 0.3637,-8.495403 0.3142,-11.415845 -0.0679,-4.004011 -1.05449,-7.180429 -1.8278,-9.304858 z" /><path
       id="path8"
       style="baseline-shift:baseline;display:inline;overflow:visible;opacity:1;vector-effect:none;fill:#ffffff;enable-background:accumulate;stop-color:#000000;stop-opacity:1"
       d="m 132.44721,74.908088 c 0,0 -6.38656,4.620063 -9.44335,11.177612 -0.22411,0.480762 -0.4444,0.97214 -0.66094,1.472262 0.38178,0.259922 0.7686,0.529566 1.15858,0.809253 0.36383,0.260925 0.7455,0.552734 1.13637,0.864547 0.28348,-0.679454 0.57446,-1.339836 0.87178,-1.977657 2.63262,-5.647601 8.57829,-10.119279 8.57829,-10.119279 z m -12.33155,19.077389 c -2.28001,7.020763 -3.78843,14.614143 -3.40651,20.215823 0.54328,7.96804 6.22236,14.29111 6.22236,14.29111 l 2.07843,-1.82469 c 0,0 -5.08435,-5.92223 -5.54333,-12.65401 -0.3226,-4.73135 0.9979,-11.70635 2.9993,-18.24643 z"
       sodipodi:nodetypes="cscscscccsccscc" /><path
       id="path8-2"
       style="baseline-shift:baseline;display:inline;overflow:visible;vector-effect:none;fill:#ffffff;enable-background:accumulate;stop-color:#000000"
       d="m 132.44721,74.908088 c 0,0 6.38656,4.620063 9.44335,11.177612 0.22411,0.480762 0.4444,0.97214 0.66094,1.472262 -0.38178,0.259922 -0.7686,0.529566 -1.15858,0.809253 -0.36383,0.260925 -0.7455,0.552734 -1.13637,0.864547 -0.28348,-0.679454 -0.57446,-1.339836 -0.87178,-1.977657 -2.63262,-5.647601 -8.57829,-10.119279 -8.57829,-10.119279 z m 12.33155,19.077389 c 2.28001,7.020763 3.78843,14.614143 3.40651,20.215823 -0.54328,7.96804 -6.22236,14.29111 -6.22236,14.29111 l -2.07843,-1.82469 c 0,0 5.08435,-5.92223 5.54333,-12.65401 0.3226,-4.73135 -0.9979,-11.70635 -2.9993,-18.24643 z"
       sodipodi:nodetypes="cscscscccsccscc" /><path
       id="path7-4"
       style="baseline-shift:baseline;display:inline;overflow:visible;opacity:1;vector-effect:none;fill:#ffffff;enable-background:accumulate;stop-color:#000000;stop-opacity:1"
       d="m 158.01361,83.197505 -2.27325,0.14056 c 0,0 -7.27457,0.442228 -14.31644,5.599658 -7.05874,5.169777 -10.09601,12.488127 -10.09602,12.488127 l -0.26148,0.62115 0.33228,0.58963 c 0,0 1.40072,2.4738 2.80448,7.59178 1.63996,5.97909 -0.43644,11.16202 8.15247,22.32215 5.61206,7.29213 14.17753,12.24398 19.95951,14.98203 h 7.05538 l 0.016,-0.0465 c 0,0 -16.45814,-5.7298 -24.83983,-16.62069 -0.3686,-0.47895 -0.46197,-0.78233 -0.7891,-1.23455 1.3271,-0.74351 7.03738,-4.08495 9.6175,-10.23452 1.39816,-3.33242 1.61219,-7.7885 1.57975,-12.1698 -0.0324,-4.38129 -0.35918,-8.694985 -0.31419,-11.349696 0.0878,-5.182063 2.44739,-10.597286 2.44739,-10.597286 z m -4.31033,3.327962 c -0.77331,2.12431 -1.76044,5.300505 -1.82831,9.304858 -0.0495,2.920442 0.28322,7.161705 0.31471,11.415845 0.0315,4.25414 -0.28693,8.51549 -1.36375,11.08201 -2.11908,5.0507 -7.46566,8.32268 -8.5602,8.97258 -4.97166,-7.89264 -3.75492,-11.81932 -5.39657,-17.8046 -1.21425,-4.42704 -2.30596,-6.67231 -2.72076,-7.4843 0.32853,-0.73966 2.9422,-6.472965 8.91005,-10.843783 4.63262,-3.392904 8.42887,-4.273104 10.64483,-4.64261 z" /><path
       id="path15"
       style="fill:#ffffff;fill-opacity:1;stroke:none;stroke-width:1;stroke-dasharray:none;stroke-opacity:1"
       d="m 131.87825,121.83804 -0.55914,4.01267 h 1.942 l -0.55913,-4.01267 h -0.41187 z m -0.92655,6.65179 -0.86559,6.21409 h 4.408 l -0.86558,-6.21409 z m -1.33532,9.58805 -1.31724,9.45471 h 3.99097 3.99098 l -1.31724,-9.45471 z" /></g></svg>
