<svg xmlns="http://www.w3.org/2000/svg" xml:space="preserve" width="279.22656" height="274.48633" viewBox="0 0 73.878694 72.624507"><path d="m106.88081 83.197505.92604 2.082043s2.35905 5.415223 2.44688 10.597286c.045 2.654711-.28175 6.968406-.31419 11.349696-.0324 4.3813.18159 8.83738 1.57975 12.1698 2.58013 6.14957 8.2904 9.49101 9.6175 10.23452-.32712.45222-.4205.7556-.7891 1.23455-8.38169 10.89089-24.839826 16.62069-24.839826 16.62069l.01602.0465h7.053836c5.78255-2.73801 14.34938-7.68974 19.96157-14.98203 8.58891-11.16013 6.512-16.34306 8.15196-22.32215 1.40376-5.11798 2.80499-7.59178 2.80499-7.59178l.33177-.58963-.26149-.62115s-3.03728-7.31835-10.09602-12.488127c-7.04187-5.15743-14.31644-5.599658-14.31644-5.599658zm4.31085 3.327962c2.21596.369506 6.01169 1.249706 10.64431 4.64261 5.96897 4.371638 8.58035 10.108093 8.90799 10.845853-.41572.81403-1.50734 3.0582-2.72077 7.48223-1.64165 5.98528-.42283 9.91196-5.3945 17.8046-1.09454-.6499-6.44112-3.92188-8.5602-8.97258-1.07681-2.56652-1.39473-6.82787-1.36323-11.08201s.3637-8.495403.3142-11.415845c-.0679-4.004011-1.05449-7.180429-1.8278-9.304858" style="baseline-shift:baseline;display:inline;overflow:visible;opacity:1;vector-effect:none;fill:#fff;stop-color:#000;stop-opacity:1" transform="translate(-95.507866 -74.908089)"/><path d="M132.44721 74.908088s-6.38656 4.620063-9.44335 11.177612c-.22411.480762-.4444.97214-.66094 1.472262.38178.259922.7686.529566 1.15858.809253.36383.260925.7455.552734 1.13637.864547.28348-.679454.57446-1.339836.87178-1.977657 2.63262-5.647601 8.57829-10.119279 8.57829-10.119279zm-12.33155 19.077389c-2.28001 7.020763-3.78843 14.614143-3.40651 20.215823.54328 7.96804 6.22236 14.29111 6.22236 14.29111l2.07843-1.82469s-5.08435-5.92223-5.54333-12.65401c-.3226-4.73135.9979-11.70635 2.9993-18.24643z" style="baseline-shift:baseline;display:inline;overflow:visible;opacity:1;vector-effect:none;fill:#fff;stop-color:#000;stop-opacity:1" transform="translate(-95.507866 -74.908089)"/><path d="M132.44721 74.908088s6.38656 4.620063 9.44335 11.177612c.22411.480762.4444.97214.66094 1.472262-.38178.259922-.7686.529566-1.15858.809253-.36383.260925-.7455.552734-1.13637.864547-.28348-.679454-.57446-1.339836-.87178-1.977657-2.63262-5.647601-8.57829-10.119279-8.57829-10.119279zm12.33155 19.077389c2.28001 7.020763 3.78843 14.614143 3.40651 20.215823-.54328 7.96804-6.22236 14.29111-6.22236 14.29111l-2.07843-1.82469s5.08435-5.92223 5.54333-12.65401c.3226-4.73135-.9979-11.70635-2.9993-18.24643z" style="baseline-shift:baseline;display:inline;overflow:visible;vector-effect:none;fill:#fff;stop-color:#000" transform="translate(-95.507866 -74.908089)"/><path d="m158.01361 83.197505-2.27325.14056s-7.27457.442228-14.31644 5.599658c-7.05874 5.169777-10.09601 12.488127-10.09602 12.488127l-.26148.62115.33228.58963s1.40072 2.4738 2.80448 7.59178c1.63996 5.97909-.43644 11.16202 8.15247 22.32215 5.61206 7.29213 14.17753 12.24398 19.95951 14.98203h7.05538l.016-.0465s-16.45814-5.7298-24.83983-16.62069c-.3686-.47895-.46197-.78233-.7891-1.23455 1.3271-.74351 7.03738-4.08495 9.6175-10.23452 1.39816-3.33242 1.61219-7.7885 1.57975-12.1698-.0324-4.38129-.35918-8.694985-.31419-11.349696.0878-5.182063 2.44739-10.597286 2.44739-10.597286zm-4.31033 3.327962c-.77331 2.12431-1.76044 5.300505-1.82831 9.304858-.0495 2.920442.28322 7.161705.31471 11.415845.0315 4.25414-.28693 8.51549-1.36375 11.08201-2.11908 5.0507-7.46566 8.32268-8.5602 8.97258-4.97166-7.89264-3.75492-11.81932-5.39657-17.8046-1.21425-4.42704-2.30596-6.67231-2.72076-7.4843.32853-.73966 2.9422-6.472965 8.91005-10.843783 4.63262-3.392904 8.42887-4.273104 10.64483-4.64261" style="baseline-shift:baseline;display:inline;overflow:visible;opacity:1;vector-effect:none;fill:#fff;stop-color:#000;stop-opacity:1" transform="translate(-95.507866 -74.908089)"/><path d="m131.87825 121.83804-.55914 4.01267h1.942l-.55913-4.01267h-.41187zm-.92655 6.65179-.86559 6.21409h4.408l-.86558-6.21409zm-1.33532 9.58805-1.31724 9.45471h7.98195l-1.31724-9.45471z" style="fill:#fff;fill-opacity:1;stroke:none;stroke-width:1;stroke-dasharray:none;stroke-opacity:1" transform="translate(-95.507866 -74.908089)"/></svg>